<?xml version="1.0" standalone="no"?><!DOCTYPE svg PUBLIC "-//W3C//DTD SVG 1.1//EN" "http://www.w3.org/Graphics/SVG/1.1/DTD/svg11.dtd"><svg t="1709210755799" class="icon" viewBox="0 0 1024 1024" version="1.1" xmlns="http://www.w3.org/2000/svg" p-id="1317" xmlns:xlink="http://www.w3.org/1999/xlink" width="200" height="200"><path d="M512 0C229.655145 0 0 229.755126 0 512S229.655145 1024 512 1024s512-229.655145 512-512S794.344855 0 512 0z m0 958.31283C265.948057 958.31283 65.68717 758.151923 65.68717 512S265.948057 65.68717 512 65.68717s446.31283 200.160906 446.31283 446.31283-200.260887 446.31283-446.31283 446.31283z" fill="#0636FF" p-id="1318"></path><path d="M725.958211 488.104667L430.715876 238.153486c-18.396407-10.59793-41.391916 2.699473-41.391916 23.895333V762.051162c0 21.19586 22.995509 34.493263 41.391916 23.895333l295.142355-249.951182c18.396407-10.697911 18.396407-37.192736 0.09998-47.890646z" fill="#0636FF" p-id="1319"></path></svg>